<svg width="16px" height="16px" viewBox="0 0 16 16" version="1.1" xmlns="http://www.w3.org/2000/svg" xmlns:xlink="http://www.w3.org/1999/xlink">
    <g transform="translate(1.000000, 1.000000)">
        <path d="M8.5,10.125 L11.6429,10.125 L11.6429,10.9375 L8.5,10.9375 L8.5,10.125 Z M6.143,10.9375 L8.50014,8.5 L6.143,6.0625 L5.55371,6.67188 L7.32157,8.5 L5.55371,10.3281 L6.143,10.9375 Z M14,4.4375 L14,12.5625 C14,13.0094 13.6464,13.375 13.2143,13.375 L3.78571,13.375 C3.35357,13.375 3,13.0094 3,12.5625 L3,4.4375 C3,3.99062 3.35357,3.625 3.78571,3.625 L13.2143,3.625 C13.6464,3.625 14,3.99062 14,4.4375 Z M13.2142,4.4375 L3.78564,4.4375 L3.78564,12.5625 L13.2142,12.5625 L13.2142,4.4375 Z" fill="#333333"></path>
        <polygon fill="#89D185" points="4 0 2 0 2 2 0 2 0 4 2 4 2 6 4 6 4 4 6 4 6 2 4 2"></polygon>
    </g>
</svg>