<svg width="16px" height="16px" viewBox="0 0 16 16" version="1.1" xmlns="http://www.w3.org/2000/svg" xmlns:xlink="http://www.w3.org/1999/xlink">
    <g transform="translate(2.000000, 2.000000)">
        <path d="M7.5,0.75 C7.372496,0.75 7.23,0.7875 7.11,0.855 C6.03,1.515 3.375,3.435 2.25,3.75 C1.215,3.75 0,4.252504 0,5.625 C0,6.997496 1.222504,7.5 2.25,7.5 C2.475,7.56 2.73,7.672496 3,7.807496 L3,11.25 L4.5,11.25 L4.5,8.662496 C5.505,9.30752 6.517496,10.03496 7.11,10.39496 C7.23,10.46248 7.365,10.5 7.5,10.5 C7.89,10.5 8.25,10.18496 8.25,9.75 L8.25,1.5 C8.25,1.065 7.89,0.75 7.5,0.75 Z M7.5,9.75 C7.215,9.57752 6.832496,9.31504 6.375,9 C6.255,8.91752 6.127504,8.83496 6,8.745 L6,2.482496 C6.12,2.4 6.232504,2.332496 6.352504,2.25 C6.81,1.942504 7.222496,1.672504 7.5,1.5 L7.5,9.75 Z" id="Shape" fill="#333333"></path>
        <polygon fill="#89D185" points="9 5.25 12 5.25 12 6 9 6"></polygon>
        <polygon fill="#89D185" points="9 6.75 12 8.25 12 9 9 7.5"></polygon>
        <polygon fill="#89D185" points="12 2.25 12 3 9 4.5 9 3.75"></polygon>
    </g>
</svg>