<?xml version="1.0" encoding="UTF-8"?>
<svg width="16px" height="16px" viewBox="0 0 16 16" version="1.1" xmlns="http://www.w3.org/2000/svg" xmlns:xlink="http://www.w3.org/1999/xlink">
    <!-- Generator: Sketch 52.2 (67145) - http://www.bohemiancoding.com/sketch -->
    <title>github-light</title>
    <desc>Created with Sketch.</desc>
    <g id="Page-1" stroke="none" stroke-width="1" fill="none" fill-rule="evenodd">
        <path d="M7.99926333,0 C3.58218484,0 0,3.58169373 0,8.00024556 C0,11.5347924 2.29202861,14.5330428 5.47100893,15.5909021 C5.87126677,15.6645692 6.0171276,15.4175389 6.0171276,15.2053777 C6.0171276,15.0158077 6.010252,14.512416 6.00632309,13.8449922 C3.78108598,14.3282483 3.31158108,12.7723994 3.31158108,12.7723994 C2.94766567,11.848123 2.42315602,11.602075 2.42315602,11.602075 C1.69679855,11.1060499 2.47816078,11.1158722 2.47816078,11.1158722 C3.28113202,11.1723503 3.70348998,11.9404524 3.70348998,11.9404524 C4.41707849,13.162835 5.57610731,12.8097241 6.03186101,12.6049296 C6.10454587,12.0882777 6.31130483,11.7356579 6.5396728,11.5357746 C4.76331379,11.3339268 2.8956076,10.6473495 2.8956076,7.58181651 C2.8956076,6.70861598 3.20746493,5.99404524 3.71920562,5.43515762 C3.63669849,5.23281869 3.36216581,4.41904294 3.79778385,3.31796556 C3.79778385,3.31796556 4.46913656,3.10285767 5.99748304,4.13812579 C6.63544001,3.96034255 7.32005279,3.87194205 8.00024556,3.86850425 C8.67994721,3.87194205 9.36406888,3.96034255 10.0030081,4.13812579 C11.5303723,3.10285767 12.2007428,3.31796556 12.2007428,3.31796556 C12.6373431,4.41904294 12.3628104,5.23281869 12.2807944,5.43515762 C12.7935173,5.99404524 13.1029191,6.70861598 13.1029191,7.58181651 C13.1029191,10.6552073 11.2322662,11.3314712 9.45050493,11.5293901 C9.73731545,11.7764204 9.99318579,12.2645876 9.99318579,13.0110808 C9.99318579,14.0802357 9.98336352,14.9431229 9.98336352,15.2053777 C9.98336352,15.4195034 10.127751,15.6684981 10.5334111,15.590411 C13.7099358,14.5300961 16,11.5338101 16,8.00024556 C16,3.58169373 12.4178152,0 7.99926333,0" id="Fill-4" fill="#161514"></path>
    </g>
</svg>