<svg width="16px" height="16px" viewBox="0 0 16 16" version="1.1" xmlns="http://www.w3.org/2000/svg" xmlns:xlink="http://www.w3.org/1999/xlink">
    <path d="M9.0362577,4.27399922 L9.0362577,4.72188332 L9.3160498,5.28173844 L6.79792092,6.96130381 L4.67150102,6.96130381 C4.42528398,6.96130381 4.29657962,7.25802703 4.4812424,7.44277922 L6.23833674,9.20072432 L4,12 L6.79792092,9.76057944 L8.5550153,11.5185246 C8.6337027,11.6002252 8.7539001,11.6263255 8.8593605,11.5846117 C8.964821,11.5428978 9.0346843,11.4416209 9.0362577,11.3281738 L9.0362577,9.20072432 L10.7150102,6.68137625 L11.2745944,6.96130381 L11.7222618,6.96130381 C11.9684788,6.96130381 12.0971832,6.6645806 11.9125204,6.4798284 L9.5175001,4.08364847 C9.4388126,4.00194779 9.3186152,3.9758475 9.2131548,4.01756135 C9.1076943,4.05927519 9.037831,4.16055213 9.0362577,4.27399922 Z" id="Shape" fill="#333333" fill-rule="nonzero"></path>
</svg>