<svg width="16px" height="16px" viewBox="0 0 16 16" version="1.1" xmlns="http://www.w3.org/2000/svg" xmlns:xlink="http://www.w3.org/1999/xlink">
    <path d="M8.77777778,3 L10.8518519,3 L10.8518519,5 L15,5 L15,6 L10.8518519,6 L10.8518519,9 L15,9 L15,10 L10.8518519,10 L10.8518519,12 L8.77777778,12 L8.77777778,11.00049 C8.77777778,11.00049 4.98611111,11.45728 4.65393778,8 L4.11111111,8 C3.19964889,8 2.7013837,8.28772 2.42187111,8.58447 C2.13020444,8.89734 2.03703704,9.27295 2.03703704,9.5 L2.03703704,12 L1,12 L1,9.5 C1,9.0603 1.1660877,8.43604 1.65219881,7.91553 C2.15046815,7.37903 2.94849926,7 4.11111111,7 L4.65393778,7 C4.98611111,3.543823 8.77777778,4.00049 8.77777778,4.00049 L8.77777778,3 Z" id="Shape" fill="#333333"></path>
</svg>