<svg xmlns="http://www.w3.org/2000/svg" width="16" height="16" viewBox="0 0 16 16"><path fill-rule="evenodd" d="m11 8.02c0 1.09-.45 2.09-1.17 2.83l-.67-.67c.55-.56.89-1.31.89-2.16 0-.85-.34-1.61-.89-2.16l.67-.67a3.99 3.99 0 0 1 1.17 2.83zm-4.28-5.74-3.72 3.72h-2c-.55 0-1 .45-1 1v2c0 .55.45 1 1 1h2l3.72 3.72c.47.47 1.28.14 1.28-.53v-10.38c0-.67-.81-1-1.28-.53zm5.94.08-.67.67a6.996 6.996 0 0 1 2.06 4.98c0 1.94-.78 3.7-2.06 4.98l.67.67a7.973 7.973 0 0 0 2.34-5.66c0-2.22-.89-4.22-2.34-5.66v.02zm-1.41 1.41-.69.67a5.05 5.05 0 0 1 1.48 3.58c0 1.39-.56 2.66-1.48 3.56l.69.67a5.971 5.971 0 0 0 1.75-4.23c0-1.65-.67-3.16-1.75-4.25z" fill="#222222"/></svg>