<svg width="16" height="16" viewBox="0 0 16 16" fill="none" xmlns="http://www.w3.org/2000/svg">
<path d="M14 5.75V12.5H5V11H3.5V9.5H2V2.75H9.69336C9.42383 2.82812 9.16211 2.92969 8.9082 3.05469C8.6582 3.17969 8.41992 3.32813 8.19336 3.5H2.75V8.75H10.25V5.75H10.625L11 6.125V9.5H4.25V10.25H11.75V6.5L12.5 5.75V11H5.75V11.75H13.25V5.75H14ZM7.25 7.25C7.25 6.90625 7.29492 6.57422 7.38477 6.25391C7.47461 5.93359 7.59961 5.63477 7.75977 5.35742C7.92383 5.08008 8.11914 4.82812 8.3457 4.60156C8.57617 4.37109 8.83008 4.17578 9.10742 4.01562C9.38477 3.85156 9.68359 3.72461 10.0039 3.63477C10.3242 3.54492 10.6562 3.5 11 3.5H11.9668L11.1113 2.63867L11.6387 2.11133L13.4023 3.875L11.6387 5.63867L11.1113 5.11133L11.9668 4.25H11C10.5859 4.25 10.1973 4.33008 9.83398 4.49023C9.4707 4.64648 9.15234 4.86133 8.87891 5.13477C8.60938 5.4043 8.39453 5.7207 8.23438 6.08398C8.07812 6.44727 8 6.83594 8 7.25H7.25Z" fill="#424242"/>
</svg>
