<svg xmlns="http://www.w3.org/2000/svg" viewBox="0 0 16 16"><style>.icon-canvas-transparent{opacity:0;fill:#252526}.icon-vs-out{fill:#252526}.icon-vs-green{fill:#78d278}.icon-white{fill:#fff}</style><path class="icon-canvas-transparent" d="M16 16H0V0h16v16z" /><path class="icon-vs-out" d="M8 16c-4.411 0-8-3.589-8-8s3.589-8 8-8 8 3.589 8 8-3.589 8-8 8z"  style="display: none;"/><path class="icon-vs-green" d="M8 1a7 7 0 1 0 0 14A7 7 0 0 0 8 1zM6.3 12.389L3.043 9.132l1.414-1.414L6.3 9.561l5.243-5.243 1.414 1.414L6.3 12.389z" /><path class="icon-white" d="M6.3 12.389L3.043 9.132l1.414-1.414L6.3 9.561l5.243-5.243 1.414 1.414L6.3 12.389z"  style="display: none;"/></svg>
