<svg xmlns="http://www.w3.org/2000/svg" viewBox="0 0 16 16"><defs><style>.icon-canvas-transparent,.icon-vs-out{fill:#252526;}.icon-canvas-transparent{opacity:0;}.icon-vs-red{fill:#ff4635;}.icon-white{fill:#fff;}</style></defs><title>StatusCriticalError_16x</title><g ><path class="icon-canvas-transparent" d="M16,16H0V0H16Z"/></g><g  style="display: none;"><path class="icon-vs-out" d="M16,8A8,8,0,1,1,8,0,8,8,0,0,1,16,8Z" style="display: none;"/></g><g ><path class="icon-vs-red" d="M8,1a7,7,0,1,0,7,7A7,7,0,0,0,8,1Zm4.414,10L11,12.414l-3-3-3,3L3.586,11l3-3-3-3L5,3.586l3,3,3-3L12.414,5l-3,3Z"/></g><g  style="display: none;"><path class="icon-white" d="M9.414,8l3,3L11,12.414l-3-3-3,3L3.586,11l3-3-3-3L5,3.586l3,3,3-3L12.414,5Z"/></g></svg>