<svg width="16" height="16" viewBox="0 0 16 16" fill="none" xmlns="http://www.w3.org/2000/svg">
<path fill-rule="evenodd" clip-rule="evenodd" d="M6.69231 2.92308H9.46154V3.84615H10.3846V2.92308C10.3846 2.41328 9.97134 2 9.46154 2H6.69231C6.18251 2 5.76923 2.41328 5.76923 2.92308V3.84615H6.69231V2.92308ZM3.92308 3.84616H3V4.76924H3.92308V13.0769L4.84616 14H11.3077L12.2308 13.0769V4.76924H13.1538V3.84616H12.2308H11.3077H4.84616H3.92308ZM4.84616 4.76924V13.0769H11.3077V4.76924H4.84616ZM6.69231 5.69232H5.76923V12.1539H6.69231V5.69232ZM7.61538 5.69232H8.53846V12.1539H7.61538V5.69232ZM10.3846 5.69232H9.46154V12.1539H10.3846V5.69232Z" fill="#C5C5C5"/>
</svg>
