<svg width="12" height="12" viewBox="0 0 12 12" fill="none" xmlns="http://www.w3.org/2000/svg">
<g clip-path="url(#clip0)">
<path d="M11.1405 10.6095L8.043 7.51276C8.72354 6.69576 9.06291 5.64783 8.9905 4.58698C8.91808 3.52613 8.43947 2.53403 7.65421 1.81708C6.86896 1.10013 5.83753 0.713516 4.77448 0.73767C3.71144 0.761824 2.69863 1.19489 1.94675 1.94677C1.19487 2.69865 0.761809 3.71145 0.737655 4.7745C0.7135 5.83754 1.10011 6.86897 1.81707 7.65423C2.53402 8.43948 3.52611 8.9181 4.58696 8.99051C5.64781 9.06293 6.69574 8.72356 7.51275 8.04301L10.6095 11.1405C10.6444 11.1754 10.6858 11.203 10.7313 11.2219C10.7769 11.2408 10.8257 11.2505 10.875 11.2505C10.9243 11.2505 10.9731 11.2408 11.0187 11.2219C11.0642 11.203 11.1056 11.1754 11.1405 11.1405C11.1754 11.1056 11.203 11.0643 11.2219 11.0187C11.2408 10.9731 11.2505 10.9243 11.2505 10.875C11.2505 10.8257 11.2408 10.7769 11.2219 10.7313C11.203 10.6858 11.1754 10.6444 11.1405 10.6095ZM4.875 8.25001C4.20749 8.25001 3.55496 8.05207 2.99995 7.68122C2.44493 7.31037 2.01235 6.78327 1.7569 6.16657C1.50146 5.54987 1.43462 4.87127 1.56485 4.21658C1.69507 3.5619 2.01651 2.96053 2.48851 2.48853C2.96051 2.01653 3.56188 1.69509 4.21657 1.56486C4.87125 1.43464 5.54985 1.50147 6.16655 1.75692C6.78325 2.01237 7.31036 2.44495 7.68121 2.99996C8.05206 3.55498 8.25 4.2075 8.25 4.87501C8.24901 5.76981 7.89311 6.62768 7.26039 7.2604C6.62767 7.89312 5.7698 8.24902 4.875 8.25001Z" fill="#C5C5C5"/>
<path d="M6.75 4.5V5.25H5.25V6.75H4.5V5.25H3V4.5H4.5V3H5.25V4.5H6.75Z" fill="#75BEFF"/>
</g>
<defs>
<clipPath id="clip0">
<rect width="12" height="12" fill="white"/>
</clipPath>
</defs>
</svg>
