<svg xmlns="http://www.w3.org/2000/svg" viewBox="0 0 16 16"><defs><style>.icon-canvas-transparent,.icon-vs-out{fill:#f6f6f6;}.icon-canvas-transparent{opacity:0;}.icon-vs-bg{fill:#424242;}.icon-vs-fg{fill:#f0eff1;}</style></defs><title>StatusHelp_grey_16x</title><g ><path class="icon-canvas-transparent" d="M16,16H0V0H16Z"/></g><g  style="display: none;"><path class="icon-vs-out" d="M0,8a8,8,0,1,1,8,8A8,8,0,0,1,0,8Z" style="display: none;"/></g><g ><path class="icon-vs-bg" d="M8,1a7,7,0,1,0,7,7A7,7,0,0,0,8,1ZM9,13H7V11H9Zm2-6A2,2,0,0,1,9,9v1H7V9A2,2,0,0,1,9,7V5.2A2.18,2.18,0,0,0,8,5a2.18,2.18,0,0,0-1,.2V6H5V5C5,3.841,6.262,3,8,3s3,.841,3,2Z"/></g><g  style="display: none;"><path class="icon-vs-fg" d="M9,10H7V9A2,2,0,0,1,9,7V5.2A2.18,2.18,0,0,0,8,5a2.18,2.18,0,0,0-1,.2V6H5V5C5,3.841,6.262,3,8,3s3,.841,3,2V7A2,2,0,0,1,9,9Zm0,1H7v2H9Z" style="display: none;"/></g></svg>