<?xml version="1.0" encoding="UTF-8"?>
<svg width="16px" height="16px" viewBox="0 0 16 16" version="1.1" xmlns="http://www.w3.org/2000/svg" xmlns:xlink="http://www.w3.org/1999/xlink">
    <!-- Generator: Sketch 52.2 (67145) - http://www.bohemiancoding.com/sketch -->
    <title>twitter</title>
    <desc>Created with Sketch.</desc>
    <g id="Page-1" stroke="none" stroke-width="1" fill="none" fill-rule="evenodd">
        <path d="M5.02000851,15.0097914 C11.0617284,15.0097914 14.3652618,10.0034057 14.3652618,5.6645381 C14.3652618,5.52149851 14.3652618,5.37845892 14.3584504,5.24223074 C14.9987229,4.77905492 15.5572584,4.20008514 16,3.53937846 C15.4142188,3.79821201 14.7807578,3.97530864 14.1132397,4.05704555 C14.7943806,3.648361 15.3120477,3.00808855 15.5572584,2.23839932 C14.9237974,2.61302682 14.2222222,2.88548318 13.4729672,3.03533418 C12.8735632,2.39506173 12.0221371,2 11.0753512,2 C9.26351639,2 7.79225202,3.47126437 7.79225202,5.28309919 C7.79225202,5.54193274 7.81949766,5.79395487 7.88080034,6.03235419 C5.14942529,5.89612601 2.73137505,4.58833546 1.11025968,2.599404 C0.830991911,3.08301405 0.667518093,3.648361 0.667518093,4.24776501 C0.667518093,5.38527033 1.24648787,6.39335888 2.13197105,6.97914006 C1.59386973,6.96551724 1.08982546,6.81566624 0.647083865,6.57045551 C0.647083865,6.58407833 0.647083865,6.59770115 0.647083865,6.61132397 C0.647083865,8.2051937 1.77777778,9.52660707 3.28309919,9.83312048 C3.01064283,9.90804598 2.71775223,9.94891443 2.41805023,9.94891443 C2.20689655,9.94891443 2.00255428,9.9284802 1.79821201,9.88761175 C2.21370796,11.1954023 3.42613878,12.1421882 4.8633461,12.1694338 C3.7394636,13.0481056 2.32269051,13.5725841 0.783312048,13.5725841 C0.517667092,13.5725841 0.258833546,13.5589613 0,13.5249042 C1.43720732,14.4648787 3.16730524,15.0097914 5.02000851,15.0097914" id="Path" fill="#1DA1F2"></path>
    </g>
</svg>