<svg width="16" height="16" viewBox="0 0 16 16" fill="none" xmlns="http://www.w3.org/2000/svg">
<path d="M5 13.25H13.25V10.25H5V13.25ZM5.75 11H12.5V12.5H5.75V11ZM13.25 2.75V5.75H7.5605L6.833 5.0225L6.85625 5H12.5V3.5H8.2655L7.5155 2.75H13.25ZM8.3105 6.5H13.25V9.5H5V6.90125L5.75 7.65125V8.75H12.5V7.25H7.5605L8.3105 6.5Z" fill="#C5C5C5"/>
<path d="M5.77258 5.0225L7.25008 6.5L6.45508 7.295L4.97758 5.81825L3.50008 7.295L2.70508 6.5L4.18183 5.0225L2.70508 3.545L3.50008 2.75L4.97758 4.2275L6.45508 2.75L7.25008 3.545L5.77258 5.0225Z" fill="#F48771"/>
</svg>
