<svg width="12" height="12" viewBox="0 0 12 12" fill="none" xmlns="http://www.w3.org/2000/svg">
<path d="M4.3905 3.45001L3.8595 2.92501L6 0.782257L8.1405 2.92501L7.6095 3.45601L6.375 2.21776V4.50001H5.625V2.21776L4.3905 3.45001ZM4.5 6.37501V5.62501H2.21775L3.45 4.39051L2.925 3.85951L0.782249 6.00001L2.925 8.14051L3.456 7.60951L2.21775 6.37501H4.5ZM6.375 9.78226V7.50001H5.625V9.78226L4.3905 8.55001L3.8595 9.08101L6 11.2178L8.1405 9.07501L7.6095 8.54401L6.375 9.78226ZM9.075 3.85726L8.544 4.38826L9.78225 5.62501H7.5V6.37501H9.78225L8.55 7.60951L9.081 8.14051L11.2177 6.00001L9.075 3.85726Z" fill="#C5C5C5"/>
</svg>
