<svg width="16" height="16" viewBox="0 0 16 16" fill="none" xmlns="http://www.w3.org/2000/svg">
<path d="M5.76758 10.3789C5.82227 10.2227 5.87695 10.0684 5.93164 9.91602C5.99023 9.75977 6.05273 9.60742 6.11914 9.45898L8.42188 4.25H9.5V11.75H8.64453V6.7168C8.64453 6.4707 8.65039 6.22852 8.66211 5.99023C8.67383 5.74805 8.68555 5.50391 8.69727 5.25781C8.66602 5.37891 8.63281 5.50195 8.59766 5.62695C8.56641 5.75195 8.52539 5.87109 8.47461 5.98438L5.96094 11.75H5.53906L3.03125 6.03125C2.97656 5.91016 2.93164 5.7832 2.89648 5.65039C2.86523 5.51758 2.83008 5.38672 2.79102 5.25781C2.81055 5.50391 2.82227 5.75 2.82617 5.99609C2.83008 6.23828 2.83203 6.48242 2.83203 6.72852V11.75H2V4.25H3.13672L5.39844 9.48242C5.46094 9.62695 5.52344 9.77539 5.58594 9.92773C5.64844 10.0762 5.69727 10.2266 5.73242 10.3789H5.76758ZM13.8887 10.1387L12.125 11.9023L10.3613 10.1387L10.8887 9.61133L11.75 10.4668V4.25H12.5V10.4668L13.3613 9.61133L13.8887 10.1387Z" fill="#424242"/>
</svg>
