<svg width="16px" height="16px" viewBox="0 0 16 16" version="1.1" xmlns="http://www.w3.org/2000/svg" xmlns:xlink="http://www.w3.org/1999/xlink">
    <g id="add-server" transform="translate(2.000000, 0.000000)">
        <path d="M7.5,4 L9.5,4 L9.5,6 L13,6 L13,7 L9.5,7 L9.5,10 L13,10 L13,11 L9.5,11 L9.5,13 L7.5,13 L7.5,12.00049 C7.5,12.00049 3.84229,12.45728 3.52246,9 L3,9 C2.12109,9 1.63867,9.2876 1.37158,9.58447 C1.09033,9.89722 1,10.27295 1,10.5 L1,13 L0,13 L0,10.5 C0,10.0603 0.159668,9.43604 0.628418,8.91553 C1.11133,8.37891 1.87891,8 3,8 L3.52246,8 C3.84326,4.543701 7.5,5.00049 7.5,5.00049 L7.5,4 Z" id="Shape" fill="#CCCCCC"></path>
        <polygon fill="#89D185" points="4 0 2 0 2 2 0 2 0 4 2 4 2 6 4 6 4 4 6 4 6 2 4 2"></polygon>
    </g>
</svg>