<?xml version="1.0" encoding="UTF-8"?>
<svg width="14px" height="12px" viewBox="0 0 14 12" version="1.1" xmlns="http://www.w3.org/2000/svg" xmlns:xlink="http://www.w3.org/1999/xlink">
    <path d="M12.85807,0.0131139552 L1.14192966,0.0131139552 C0.512285144,0.0131139552 0,0.513779819 0,1.12916992 L0,7.82422297 C0,8.43963979 0.512285144,8.94030565 1.141957,8.94030565 L1.80955464,8.94030565 L1.80955464,11.6949433 C1.80955464,11.823644 1.8889062,11.9396509 2.0105312,11.9889025 C2.05080854,12.0052038 2.09308198,12.013114 2.13502729,12.013114 C2.21976557,12.013114 2.30305463,11.9807785 2.36531635,11.9199289 L5.41406237,8.94027892 L12.8580153,8.94027892 C13.4876872,8.94027892 13.999945,8.43961306 13.999945,7.82419624 L13.999945,1.12916992 C13.9999997,0.513779819 13.4877145,0.0131139552 12.85807,0.0131139552 Z M12.5361765,7.86520328 L5.37362044,7.86520328 C5.29402959,7.86520328 5.22172596,7.8934317 5.16712354,7.93933876 C5.16663255,7.93974544 5.16606405,7.94024781 5.16557307,7.94065449 C5.16182609,7.94383617 5.1580016,7.94694608 5.15443552,7.95031914 L2.71011789,10.2131138 L2.71011789,8.15002322 C2.71011789,8.14011935 2.70957523,8.13133984 2.7084899,8.12358899 C2.69407052,7.97869108 2.56256473,7.86520328 2.40227187,7.86520328 L1.46384926,7.86520328 C1.20807322,7.86520328 1,7.6725563 1,7.43577251 L1,1.4425208 C1,1.20573702 1.20807322,1.01311396 1.46384926,1.01311396 L12.5361507,1.01311396 C12.7919526,1.01311396 13,1.20573702 13,1.4425208 L13,7.43579644 L13,7.43579644 C13,7.6725563 12.7919268,7.86520328 12.5361765,7.86520328 Z" id="Shape" fill="#C5C5C5" fill-rule="nonzero"></path>
</svg>