<?xml version="1.0" ?><!DOCTYPE svg  PUBLIC '-//W3C//DTD SVG 1.1//EN'  'http://www.w3.org/Graphics/SVG/1.1/DTD/svg11.dtd'><svg enable-background="new 0 0 48 48" id="Layer_1" version="1.1" viewBox="0 0 48 48" xml:space="preserve" xmlns="http://www.w3.org/2000/svg" xmlns:xlink="http://www.w3.org/1999/xlink"><g><g><path d="M46.5,41.2h-45c-0.6,0-1-0.4-1-1V7.8c0-0.6,0.4-1,1-1h45c0.6,0,1,0.4,1,1v32.4    C47.5,40.7,47.1,41.2,46.5,41.2z M2.5,39.2h43V8.8h-43V39.2z" fill="white"/></g><g><path d="M24,29.1c-0.2,0-0.5-0.1-0.7-0.3L0.8,8.6C0.5,8.3,0.4,7.8,0.6,7.5c0.1-0.4,0.5-0.6,0.9-0.6h45    c0.4,0,0.8,0.3,0.9,0.6c0.1,0.4,0,0.8-0.3,1.1L24.7,28.8C24.5,29,24.2,29.1,24,29.1z M4.1,8.8L24,26.7L43.9,8.8H4.1z" fill="white"/></g></g></svg>