<svg width="16px" height="16px" viewBox="0 0 16 16" version="1.1" xmlns="http://www.w3.org/2000/svg" xmlns:xlink="http://www.w3.org/1999/xlink">
    <g transform="translate(2.000000, 2.500000)">
        <path d="M6,6.58333333 L8.28571429,6.58333333 L8.28571429,7.125 L6,7.125 L6,6.58333333 Z M4.28571429,7.125 L6,5.5 L4.28571429,3.875 L3.85714286,4.28125 L5.14285714,5.5 L3.85714286,6.71875 L4.28571429,7.125 Z M10,2.79166667 L10,8.20833333 C10,8.50625 9.74285714,8.75 9.42857143,8.75 L2.57142857,8.75 C2.25714286,8.75 2,8.50625 2,8.20833333 L2,2.79166667 C2,2.49375 2.25714286,2.25 2.57142857,2.25 L9.42857143,2.25 C9.74285714,2.25 10,2.49375 10,2.79166667 Z M9.42857143,2.79166667 L2.57142857,2.79166667 L2.57142857,8.20833333 L9.42857143,8.20833333 L9.42857143,2.79166667 Z" fill="#CCCCCC"></path>
        <path d="M4,1 L1,1 L1,3 L0,3 L0,1 C-6.76353751e-17,0.44771525 0.44771525,1.01453063e-16 1,0 L4,0 L4,1 Z M4,10 L4,11 L1,11 C0.44771525,11 6.76353751e-17,10.5522847 0,10 L0,8 L1,8 L1,10 L4,10 Z M8,1 L8,0 L11,0 C11.5522847,-1.01453063e-16 12,0.44771525 12,1 L12,3 L11,3 L11,1 L8,1 Z M8,10 L11,10 L11,8 L12,8 L12,10 C12,10.5522847 11.5522847,11 11,11 L8,11 L8,10 Z" fill="#89D185" fill-rule="nonzero"></path>
    </g>
</svg>