<svg width="16px" height="16px" viewBox="0 0 16 16" version="1.1" xmlns="http://www.w3.org/2000/svg" xmlns:xlink="http://www.w3.org/1999/xlink">
    <path d="M8,14 C4.68629688,14 2,11.3137031 2,8 C2,4.68629688 4.68629688,2 8,2 C8.40551562,2 8.80160937,2.04034375 9.1845625,2.11703125 C9.03020312,2.19085938 9.01335938,2.74475 9.166,3.06054688 C9.33592188,3.41210938 9.869125,4.30273438 9.34178125,4.6015625 C8.8144375,4.90039062 8.96092188,5.03515625 8.63865625,5.38085938 C8.31639063,5.7265625 8.4481875,5.77853125 8.42771875,5.8671875 C8.35740625,6.171875 8.73826563,6.62890625 8.75584375,6.67578125 C8.77342188,6.72265625 8.77342188,6.8984375 8.7675625,6.95117188 C8.76170313,7.00390625 8.52734375,7.14453125 8.46875,7.15039062 C8.41015625,7.15625 8.38085938,7.05664062 8.29882812,7.05078125 C8.21679688,7.04492188 7.859375,7.26757812 7.78320312,7.32617188 C7.70703125,7.38476562 7.671875,7.52539062 7.56640625,7.63085938 C7.4609375,7.73632812 7.44921875,7.65429688 7.28515625,7.71875 C7.12109375,7.78320312 6.59375,7.9765625 6.18945312,8.140625 C5.78515625,8.3046875 5.75,8.53467187 5.74414062,8.69726562 C5.73828125,8.85985938 5.49804688,9.09570312 5.385375,9.265625 C5.27273437,9.43554688 5.25195312,9.66992188 5.2109375,9.6171875 C5.16992188,9.56445312 5.421875,8.94921875 5.38085938,8.93164062 C5.33984375,8.9140625 5.25195312,9.1015625 5.13476562,9.25390625 C5.01757812,9.40625 5.2578125,9.32421875 4.8828125,10.0625 C4.5078125,10.8007812 5,11.17725 5.0234375,11.5625 C5.046875,11.94775 5.33984375,11.421875 5.1875,11.6679688 C5.03515625,11.9140625 5.19921875,12.4296875 5.08203125,12.6171875 C4.96484375,12.8046875 4.296875,12.40625 4.296875,12.40625 C4.31445312,12.5878906 4.8828125,12.8984375 5.29296875,13.1855469 C5.703125,13.4726562 5.95360938,13.25 6.28320312,13.1445312 C6.61279687,13.0390625 6.63476562,13.0742188 6.5234375,13.1796875 C6.41210938,13.2851562 6.5703125,13.3378906 6.828125,13.296875 C7.0859375,13.2558594 7.15625,12.9453125 7.54882812,12.9746094 C7.94140625,13.0039062 7.58984375,12.8984375 7.64257812,12.7988281 C7.6953125,12.6992188 7.58398438,12.7109375 7.32617188,12.5351562 C7.06835938,12.359375 7.33203125,12.359375 7.7890625,12.0253906 C8.24609375,11.6914062 8.10546875,12.2480469 8.05859375,12.4941406 C8.01171875,12.7402344 8.39257812,12.546875 8.39257812,12.546875 C8.67382812,12.359375 8.62185937,12.5365625 8.8269375,12.4721094 C9.03201562,12.4076563 9.58789062,11.9375 9.58789062,11.9375 C8.890625,11.5566406 9.33007812,11.515625 9.44726562,11.4277344 C9.56445312,11.3398438 9.20703125,11.1699219 9.20703125,11.1699219 C9.06054688,11.3164062 9.03710938,11.1640625 8.94335938,11.1113281 C8.84960938,11.0585938 8.9375,10.9238281 8.9375,10.9238281 C8.45264063,10.8476562 8.5625,10.3378906 8.56835938,10.2148438 C8.57421875,10.0917969 8.2578125,9.90429688 8.17578125,9.72851562 C8.09375,9.55273438 8.38671875,9.171875 8.234375,9.1484375 C8.08203125,9.125 7.9296875,9.72265625 7.109375,9.5 C6.8620625,9.43285937 6.3125,9.1484375 6.60546875,8.56835938 C6.8984375,7.98828125 7.38476562,8.73242188 7.54882812,8.65039062 C7.71289062,8.56835938 7.50195312,8.19921875 7.53710938,8.19335938 C7.57226562,8.1875 8,8.17725 8.0234375,7.67773438 C8.046875,7.17821875 8.67382812,7.22070312 8.80859375,7.20898438 C8.94335938,7.19726562 9.39453125,7.578125 9.45898438,7.59570312 C9.5234375,7.61328125 9.78125,7.83007812 10.34375,7.5078125 C10.90625,7.18554688 11.1933594,7.23242188 11.3867188,7.09765625 C11.5800781,6.96289062 11.4453125,6.69335938 11.6269531,6.60546875 C11.8085938,6.51757812 12.5351562,6.63476562 12.7167969,6.3359375 C12.8984375,6.03710938 11.9667969,4.53710938 11.6738281,4.37304688 C11.3808594,4.20898438 11.2460938,3.83398438 10.953125,3.59375 C10.6601562,3.35351562 10.25,3.05615625 9.86328125,2.82617188 C9.52096875,2.622625 9.459375,2.25796875 9.30689062,2.14285938 C11.992125,2.739375 14,5.13515625 14,8 C14,11.3137031 11.3137031,14 8,14 Z M9.40625,8.36914062 C9.32421875,8.34570312 9.15429687,8.19335937 8.73828125,8.43945312 C8.32226562,8.68554688 8.03515625,8.63867187 8,8.6796875 C8,8.6796875 7.96484375,8.77929688 8.14648437,8.796875 C8.51946875,8.83298437 8.99023437,8.45117187 9.09570312,8.4453125 C9.20117187,8.43945312 9.25390625,8.55078125 9.44140625,8.49035937 C9.62890625,8.43 9.48828125,8.39257812 9.40625,8.36914062 Z M7.44335938,13.4023437 C7.4025,13.4320625 7.47720313,13.4662812 7.52173438,13.5253906 C7.5474375,13.5595469 7.528375,13.61625 7.56054688,13.6484375 C7.6484375,13.7363281 8.08203125,13.859375 7.99725,13.6191406 C7.9125,13.3789062 7.5078125,13.3554687 7.44335938,13.4023437 Z M8.4921875,12.640625 C8.34570312,12.6464844 8.00089062,12.6829219 8.06445312,12.7460937 C8.31201562,12.9921875 7.97070312,13.0625 7.75976562,13.0800781 C7.54882812,13.0976562 7.4609375,13.2148437 7.56640625,13.2265625 C7.671875,13.2382812 8.09375,13.2207031 8.1640625,13.1621094 C8.234375,13.1035156 8.61523437,12.9511719 8.63867187,12.8398437 C8.66210937,12.7285156 8.63867187,12.6347656 8.4921875,12.640625 Z M9.76367187,12.6816406 C9.64648437,12.5878906 9.05679687,13.0180312 8.94335937,13.1152344 C8.45117187,13.5371094 8.1875,13.3964844 8.08414062,13.4667969 C7.98075,13.5371094 8.01757812,13.6308594 8.17578125,13.7714844 C8.33398437,13.9121094 8.77929687,13.7246094 9.03710937,13.6953125 C9.29492187,13.6660156 9.59375,13.4667969 9.59960937,13.2299844 C9.60546875,12.9931875 9.88085937,12.7753906 9.76367187,12.6816406 Z" id="Shape" fill="#CCCCCC" fill-rule="nonzero" transform="translate(8.000000, 8.000000) scale(1, -1) translate(-8.000000, -8.000000) "></path>
</svg>