<svg width="14" height="16" viewBox="0 0 14 16" fill="none" xmlns="http://www.w3.org/2000/svg">
<path fill-rule="evenodd" clip-rule="evenodd" d="M6.3 5.68998C6.11 5.49998 6.02 5.26998 6.02 4.98998C6.02 4.70998 6.11 4.46998 6.3 4.28998C6.49 4.10998 6.72 4.00998 7 4.00998C7.28 4.00998 7.52 4.09998 7.7 4.28998C7.88 4.47998 7.98 4.70998 7.98 4.98998C7.98 5.26998 7.89 5.50998 7.7 5.68998C7.51 5.86998 7.28 5.98998 7 5.98998C6.72 5.98998 6.48 5.87998 6.3 5.68998V5.68998ZM8 7.98998C7.98 7.73998 7.89 7.50998 7.69 7.29998C7.49 7.10998 7.27 6.99998 7 6.98998H6C5.73 7.00998 5.52 7.11998 5.31 7.29998C5.11 7.49998 5.01 7.73998 5 7.98998H6V10.99C6.02 11.26 6.11 11.49 6.31 11.68C6.51 11.88 6.73 11.99 7 11.99H8C8.27 11.99 8.48 11.88 8.69 11.68C8.89 11.49 8.99 11.26 9 10.99H8V7.97998V7.98998ZM7 2.29998C3.86 2.29998 1.3 4.83998 1.3 7.97998C1.3 11.12 3.86 13.68 7 13.68C10.14 13.68 12.7 11.13 12.7 7.97998C12.7 4.82998 10.14 2.28998 7 2.28998V2.29998ZM7 0.97998C10.86 0.97998 14 4.11998 14 7.97998C14 11.84 10.86 14.98 7 14.98C3.14 14.98 0 11.86 0 7.97998C0 4.09998 3.14 0.97998 7 0.97998V0.97998Z" fill="white"/>
</svg>
