<svg width="16px" height="16px" viewBox="0 0 16 16" version="1.1" xmlns="http://www.w3.org/2000/svg" xmlns:xlink="http://www.w3.org/1999/xlink">
    <g transform="translate(2.000000, 1.000000)" fill-rule="nonzero">
        <path d="M4.07898224,9.68394886 C4.54860191,9.12236201 5.23290485,8.76623377 6.01113173,8.76623377 C6.7893586,8.76623377 7.47366154,9.12236201 7.94328121,9.68394886 C8.23847071,9.13605925 8.80201431,8.76623377 9.44606414,8.76623377 C10.3987212,8.76623377 11.1635303,9.54697646 11.1635303,10.5194805 C11.1635303,11.4919846 10.3987212,12.2727273 9.44606414,12.2727273 C9.09720382,12.2727273 8.78859661,12.1631494 8.52024251,11.9850852 C8.25188842,13.1493506 7.23214286,14.025974 6.01113173,14.025974 C4.79012059,14.025974 3.77037503,13.1493506 3.50202094,11.9850852 C3.23366684,12.1631494 2.92505963,12.2727273 2.57619931,12.2727273 C1.62354227,12.2727273 0.858733104,11.4919846 0.858733104,10.5194805 C0.858733104,9.54697646 1.62354227,8.76623377 2.57619931,8.76623377 C3.22024914,8.76623377 3.78379274,9.13605925 4.07898224,9.68394886 Z M8.54707792,11.0125812 C8.72150808,11.3413149 9.0569507,11.574168 9.44606414,11.574168 C10.0096077,11.574168 10.4792274,11.0947646 10.4792274,10.5194805 C10.4792274,9.94419643 10.0096077,9.46479302 9.44606414,9.46479302 C8.88252054,9.46479302 8.43973628,9.93049919 8.42631858,10.492086 C8.4799894,10.6564529 8.52024251,10.834517 8.54707792,11.0125812 Z M2.57619931,9.46479302 C2.01265571,9.46479302 1.54303605,9.94419643 1.54303605,10.5194805 C1.54303605,11.0947646 2.01265571,11.574168 2.57619931,11.574168 C2.96531275,11.574168 3.30075537,11.3413149 3.47518553,11.0125812 C3.50202094,10.834517 3.54227405,10.6564529 3.59594487,10.492086 C3.58252717,9.93049919 3.13974291,9.46479302 2.57619931,9.46479302 Z M6.01113173,13.1630479 C6.96378876,13.1630479 7.74201564,12.368608 7.74201564,11.3961039 C7.74201564,10.4235998 6.96378876,9.6291599 6.01113173,9.6291599 C5.05847469,9.6291599 4.28024781,10.4235998 4.28024781,11.3961039 C4.28024781,12.368608 5.05847469,13.1630479 6.01113173,13.1630479 Z M11.1635303,8.76623377 L0.858733104,8.76623377 C0.389113438,8.76623377 0,8.3690138 0,7.88961039 L0,5.25974026 C0,4.78033685 0.389113438,4.38311688 0.858733104,4.38311688 L0.858733104,2.62987013 C0.858733104,2.15046672 1.24784654,1.75324675 1.71746621,1.75324675 L2.57619931,1.75324675 C3.04581898,1.75324675 3.43493241,2.15046672 3.43493241,2.62987013 L3.43493241,3.50649351 L4.29366552,3.50649351 L4.29366552,0.876623377 C4.29366552,0.397219968 4.68277896,0 5.15239862,0 L6.86986483,0 C7.3394845,0 7.72859793,0.397219968 7.72859793,0.876623377 L7.72859793,3.50649351 L8.58733104,3.50649351 L8.58733104,2.62987013 C8.58733104,2.15046672 8.97644447,1.75324675 9.44606414,1.75324675 L10.3047972,1.75324675 C10.7744169,1.75324675 11.1635303,2.15046672 11.1635303,2.62987013 L11.1635303,4.38311688 C11.63315,4.38311688 12.0222635,4.78033685 12.0222635,5.25974026 L12.0222635,7.88961039 C12.0222635,8.3690138 11.63315,8.76623377 11.1635303,8.76623377 Z M8.58733104,4.38311688 L7.72859793,4.38311688 L7.72859793,6.13636364 L6.86986483,6.13636364 L6.86986483,0.876623377 L5.15239862,0.876623377 L5.15239862,6.13636364 L4.29366552,6.13636364 L4.29366552,4.38311688 L3.43493241,4.38311688 L3.43493241,7.88961039 L8.58733104,7.88961039 L8.58733104,4.38311688 Z M2.57619931,2.62987013 L1.71746621,2.62987013 L1.71746621,5.25974026 L0.858733104,5.25974026 L0.858733104,7.88961039 L2.57619931,7.88961039 L2.57619931,2.62987013 Z M11.1635303,5.25974026 L10.3047972,5.25974026 L10.3047972,2.62987013 L9.44606414,2.62987013 L9.44606414,7.88961039 L11.1635303,7.88961039 L11.1635303,5.25974026 Z" id="Shape" fill="#C4C4C4" transform="translate(6.011132, 7.012987) rotate(-180.000000) translate(-6.011132, -7.012987) "></path>
        <path d="M3.84044527,9.68394886 C4.31006494,9.12236201 4.99436788,8.76623377 5.77259475,8.76623377 C6.55082163,8.76623377 7.23512457,9.12236201 7.70474424,9.68394886 C8.13008835,10.2222398 8.43505338,11.0561579 8.28170554,11.9850852 C8.01335144,13.1493506 6.99360588,14.025974 5.77259475,14.025974 C4.55158362,14.025974 3.53183806,13.1493506 3.26348397,11.9850852 C3.06655665,10.7565334 3.50139053,10.1209623 3.84044527,9.68394886 Z M5.77259475,13.1630479 C6.72525179,13.1630479 7.50347866,12.368608 7.50347866,11.3961039 C7.50347866,10.4235998 6.72525179,9.6291599 5.77259475,9.6291599 C4.81993772,9.6291599 4.04171084,10.4235998 4.04171084,11.3961039 C4.04171084,12.368608 4.81993772,13.1630479 5.77259475,13.1630479 Z M8.56675503,8.76623377 C5.85667276,8.76623377 4.04138557,8.76623377 3.12089345,8.76623377 C3.12089345,8.76623377 3.12089345,8.76623377 3.12089345,8.76623377 L3.12089345,8.76623377 C2.68832685,8.76623377 2.33766234,8.41556925 2.33766234,7.98300266 L2.33766234,4.36522661 C2.33766234,3.89096141 2.72213024,3.50649351 3.19639544,3.50649351 L4.05512854,3.50649351 L4.05512854,0.876623377 C4.05512854,0.397219968 4.44424198,0 4.91386165,0 L6.63132786,0 C7.10094752,0 7.49006096,0.397219968 7.49006096,0.876623377 L7.49006096,3.50649351 L8.34879406,3.50649351 L8.34879406,3.50649351 C8.96533095,3.50649351 9.46513285,4.0062954 9.46513285,4.62283229 L9.46513285,7.86785595 C9.46513285,8.36401632 9.0629154,8.76623377 8.56675503,8.76623377 Z M8.34879406,4.38311688 L7.49006096,4.38311688 L7.49006096,6.13636364 L6.63132786,6.13636364 L6.63132786,0.876623377 L4.91386165,0.876623377 L4.91386165,6.13636364 L4.05512854,6.13636364 L4.05512854,4.38311688 L3.19639544,4.38311688 L3.19639544,7.88961039 L8.34879406,7.88961039 L8.34879406,4.38311688 Z" id="Shape" fill="#89D185" transform="translate(5.901398, 7.012987) rotate(-180.000000) translate(-5.901398, -7.012987) "></path>
    </g>
</svg>