<svg xmlns="http://www.w3.org/2000/svg" viewBox="0 0 24 24">
    <defs>
        <style>.icon-canvas-transparent{fill:#f6f6f6;opacity:0;}.light{fill:#424242;}</style>
    </defs>
    <g id="canvas">
        <path class="icon-canvas-transparent" d="M24,24H0V0H24Z"/>
    </g>
    <g id="Layer_1" data-name="Layer 1">
        <path class="light" d="M15.19,0,13.65.76V3.65H12.53a12.16,12.16,0,0,0-8,2.74,11.84,11.84,0,0,0-4.2,7.28A8.89,8.89,0,0,0,0,16.08l1.65.54c4.17-5.43,7-5.56,11.37-5.54h.63v3l1.54.77L23.8,8.34V6.81Zm.39,12.2v-3H13c-3.87,0-6.91.16-10.5,3.6A11.14,11.14,0,0,1,5.11,8.37,9.78,9.78,0,0,1,8.52,6.2a10,10,0,0,1,4-.64H15.6V2.7l6,4.87ZM10,14.77a4.62,4.62,0,1,0,4.62,4.61A4.61,4.61,0,0,0,10,14.77Zm0,7.38a2.77,2.77,0,1,1,2.77-2.77A2.77,2.77,0,0,1,10,22.15Z"/>
    </g>
</svg>