<svg width="16px" height="16px" viewBox="0 0 16 16" version="1.1" xmlns="http://www.w3.org/2000/svg" xmlns:xlink="http://www.w3.org/1999/xlink">
    <path d="M9.0362577,4.27605312 L9.0362577,4.72393722 L9.3160498,5.28379234 L6.79792092,6.96335771 L4.67150102,6.96335771 C4.42528398,6.96335771 4.29657962,7.26008093 4.4812424,7.44483312 L6.23833674,9.20277822 L4,12.0020539 L6.79792092,9.76263334 L8.5550153,11.5205785 C8.6337027,11.6022791 8.7539001,11.6283794 8.8593605,11.5866656 C8.964821,11.5449517 9.0346843,11.4436748 9.0362577,11.3302277 L9.0362577,9.20277822 L10.7150102,6.68343015 L11.2745944,6.96335771 L11.7222618,6.96335771 C11.9684788,6.96335771 12.0971832,6.6666345 11.9125204,6.4818823 L9.5175001,4.08570237 C9.4388126,4.00400169 9.3186152,3.9779014 9.2131548,4.01961525 C9.1076943,4.06132909 9.037831,4.16260603 9.0362577,4.27605312 Z" id="Shape" fill="#C4C4C4" fill-rule="nonzero"></path>
</svg>